<?xml version="1.0" standalone="no"?>
<!DOCTYPE svg PUBLIC "-//W3C//DTD SVG 20010904//EN"
 "http://www.w3.org/TR/2001/REC-SVG-20010904/DTD/svg10.dtd">
<svg version="1.0" xmlns="http://www.w3.org/2000/svg"
 width="329.000000pt" height="265.000000pt" viewBox="0 0 329.000000 265.000000"
 preserveAspectRatio="xMidYMid meet">

<g transform="translate(0.000000,265.000000) scale(0.100000,-0.100000)"
fill="#42855B" stroke="none">
<path d="M385 2528 c-47 -25 -45 23 -45 -1186 l0 -1144 29 -29 29 -29 1162 0
1162 0 29 29 29 29 0 1147 0 1146 -26 24 -27 25 -1161 0 c-821 -1 -1167 -4
-1181 -12z m2293 -1185 l-3 -1098 -1112 0 -1113 0 -2 1098 -3 1097 1118 0
1117 0 -2 -1097z"/>
<path d="M1875 2396 c-147 -29 -325 -111 -454 -208 -138 -106 -309 -292 -387
-423 -62 -103 -78 -154 -79 -241 0 -73 3 -85 29 -122 36 -53 103 -87 172 -87
44 0 61 6 124 49 40 26 89 54 109 61 l36 12 -89 44 c-74 36 -94 52 -117 88
-16 24 -31 64 -35 90 -9 56 14 152 51 216 59 99 229 235 368 292 46 19 81 26
132 27 79 1 114 -14 170 -69 58 -58 77 -108 85 -217 7 -109 19 -131 76 -147
81 -22 191 39 305 170 46 53 49 59 26 54 -59 -15 -104 55 -135 214 -22 111
-49 153 -117 182 -62 28 -173 34 -270 15z"/>
<path d="M1620 2358 c-370 -108 -586 -214 -796 -391 -188 -158 -307 -336 -336
-504 -29 -173 56 -357 210 -450 99 -61 258 -80 364 -44 131 45 178 91 259 255
32 67 66 132 76 145 l17 24 -32 -17 c-18 -9 -57 -39 -87 -66 -80 -72 -127 -94
-205 -93 -118 0 -221 59 -262 151 -44 98 -14 294 67 437 59 103 120 173 218
248 140 108 274 184 482 273 93 40 105 55 25 32z"/>
<path d="M1490 1780 c-19 -3 -44 -11 -56 -18 -34 -18 -114 -182 -89 -182 3 0
17 7 30 16 16 10 34 14 50 10 29 -7 29 5 16 -359 l-8 -228 -34 -35 -34 -36 35
7 c26 4 57 -2 118 -25 45 -16 93 -30 105 -30 12 0 61 -20 108 -43 147 -74 247
-84 348 -33 99 51 146 142 140 274 -9 181 -136 310 -336 341 -87 13 -103 14
-103 2 0 -4 20 -11 45 -14 55 -8 131 -46 167 -84 76 -80 77 -281 1 -382 -42
-55 -99 -74 -207 -69 -134 6 -138 10 -76 87 27 34 50 64 50 67 0 3 -15 2 -33
-1 -58 -11 -58 -8 -50 297 l8 274 43 65 c23 36 42 68 42 70 0 3 -13 4 -30 1
-16 -2 -62 3 -102 13 -99 22 -108 23 -148 15z"/>
<path d="M2140 1649 c-82 -18 -199 -59 -306 -105 -99 -44 -147 -75 -93 -61 54
15 207 19 277 8 169 -26 261 -123 293 -307 48 -278 -155 -493 -471 -498 -88
-1 -100 2 -162 31 -37 17 -100 53 -140 79 -83 53 -204 115 -263 135 -90 29
-243 4 -299 -47 -50 -47 -77 -123 -83 -233 -3 -54 -3 -115 1 -136 l7 -37 22
20 c12 11 42 30 66 42 38 19 57 22 125 18 104 -5 195 -48 319 -147 100 -80
144 -106 213 -121 101 -23 263 31 396 130 188 141 424 432 539 665 79 159 86
252 29 371 -36 75 -88 132 -155 170 -46 27 -59 29 -160 31 -60 1 -130 -3 -155
-8z"/>
</g>
</svg>
